<svg xmlns="http://www.w3.org/2000/svg" width="54" height="54"><g fill="none"><path fill="#BE9243" d="M26.556 53.943C11.862 53.943 0 41.863 0 27.053 0 12.2 11.906.166 26.6.166c14.695 0 26.556 12.035 26.556 26.889s-11.906 26.89-26.6 26.89z"/><path fill="#010101" fill-opacity=".2" d="M35.054 21.266l.957-1.175-.824.475-.089-.134c-.044 0-.044.045-.044.045v.789zm-.047.058l-.307-.31c-.332.47-.689.94-.865 1.201l.732-.083.664.627.089-.18-.753-.715.44-.54zm-1.549.934c-1.363-.97-7.433-6.39-7.433-6.39l-.443-2.639-.177-1.566-.487-.492.532-.671.177.179.664-1.074 10.014 10.124 1.14-1.4-.134-1.163-.044-.045V16.897l.177-.044.31-.403.177.18.664-1.075 14.384 14.541c-.044.582-.177 1.119-.265 1.7-.177.985-.399 1.924-.531 2.953h-.045c-.177.582-.354 1.164-.575 1.745-2.523 6.711-7.568 12.17-14.03 15.078-.664.313-1.328.582-1.992.805-.044 0-.089.045-.133.045-.664.224-1.372.448-2.08.626L16.818 36.36l9.384 3.982 1.372-5.324L16.82 24.146l16.64-1.888zm-13.275-.215l-1.372.582.044.044v.94l-6.418-6.488.531-.626.133.134.664-1.074 6.418 6.488z"/><path fill="#FFF" d="M16.775 26.114l17.748.045v10.156l-8.896 6.04-8.852-6.04v-10.2zm-2.833-7.874l4.16 2.774 7.525-7.74 7.79 7.74 3.983-2.685-2.877 5.772H16.775l-2.833-5.861zm12.747-7.785c0 .582-.443 1.03-1.018 1.03a1.007 1.007 0 0 1-1.018-1.03c0-.582.442-1.029 1.018-1.029.575 0 1.018.447 1.018 1.029zm-12.526 5.95c0 .582-.442 1.03-1.018 1.03a1.007 1.007 0 0 1-1.018-1.03c0-.581.443-1.028 1.018-1.028.576-.045 1.018.447 1.018 1.029zm24.83 0c0 .582-.442 1.03-1.018 1.03a1.007 1.007 0 0 1-1.018-1.03c0-.581.443-1.028 1.018-1.028.531-.045 1.018.447 1.018 1.029z"/></g></svg>