<svg xmlns="http://www.w3.org/2000/svg" xmlns:xlink="http://www.w3.org/1999/xlink" width="67" height="67"><defs><path id="a" d="M35.38.37l16.71 16.71c-1.553 12.982-10.61 23.656-22.709 27.564L13.063 28.326l5.075-4.7-6.224 2.697L.012 14.421l13.597-2.116 10.189 3.667L35.38.37z"/></defs><g fill="none" fill-rule="evenodd"><path fill="#00A3D5" d="M66.663 33.816c0 18.305-14.839 33.144-33.143 33.144C15.215 66.96.376 52.12.376 33.816.376 15.51 15.215.672 33.52.672c18.304 0 33.143 14.84 33.143 33.144"/><g transform="translate(14.334 20.715)"><mask id="b" fill="#fff"><use xlink:href="#a"/></mask><path d="M35.38.37L23.799 15.972l-10.19-3.667L.013 14.42l11.902 11.902 6.224-2.697-5.075 4.7L29.38 44.644c12.1-3.908 21.156-14.582 22.71-27.563L35.38.37z" mask="url(#b)"/></g><path fill="#C2D5DD" d="M23.473 38.346l2.88 9.049s.854 3.056 2.617 1.175l4.479-4.198 11.24-18.838h-1.968L25.15 34.907l-1.677 3.439z"/><path fill="#A2C4D6" d="M27.655 49.151c.361.095.799-.03 1.315-.581l4.479-4.199 1.074-1.8-6.288-2.052-.58 8.632z"/><path fill="#FFFFFE" d="M23.473 38.346l-7.94-2.523c-1.029-.284-2.727-1.565 0-2.71l31.39-12.052s4.025-1.698 3.069 2.357l-5.124 24.364s-.67 4.633-3.644 2.335l-12.99-9.598 14.957-13.604c.755-.59.99-1.76-.794-.559l-18.924 11.99z"/></g></svg>