<svg xmlns="http://www.w3.org/2000/svg" width="65" height="67"><g fill="none" fill-rule="evenodd"><path fill="#8FBFB4" d="M3.912 55.977c.63.054 1.151.164 1.672.11 7.759-.522 14.777 1.534 21.11 6.03.713.521 1.81.714 2.714.714 5.428.054 10.83-.028 16.257.054 1.645.028 2.742-.603 3.647-1.919a292.02 292.02 0 0 1 5.4-7.567c1.727-2.357 3.592-4.605 5.32-6.963.3-.411.163-1.152.245-1.727-.657 0-1.288 0-1.946.055-.137 0-.274.22-.411.329-2.194 2.028-4.386 4.03-6.525 6.114-.302.273-.52.795-.52 1.206-.056 4.194-1.4 5.757-5.566 6.003-3.948.247-7.896.302-11.844.631-2.193.164-4.084-.302-5.866-1.48-2.249-1.48-4.441-2.989-6.69-4.441-1.042-.658-1.754-1.426-1.096-2.687.713-1.316 1.837-1.289 2.96-.576 1.755 1.124 3.483 2.248 5.127 3.482 1.974 1.48 4.085 2.193 6.607 1.946 3.701-.356 7.402-.411 11.103-.713.549-.055 1.042-.712 1.563-1.096-.52-.384-1.042-.823-1.618-1.097-.3-.164-.712-.054-1.068-.054-6.882-.33-13.434-1.536-18.725-6.443-.576-.52-1.289-.905-1.974-1.289-3.262-1.891-6.826-2.302-10.418-1.617-3.153.576-6.223 1.563-9.43 2.412-.028 3.345-.028 6.881-.028 10.583m33.611 10.61c-6.826 1.123-12.968-.494-18.587-4.497-2.303-1.645-5.017-2.056-7.814-2.084-2.248-.027-4.496-.054-6.744-.164-2.714-.137-4.25-1.727-4.277-4.44-.027-3.29-.027-6.58 0-9.87.027-2.55 1.453-4.003 3.975-4.387 2.139-.329 4.304-.713 6.388-1.344 6.059-1.754 11.926-1.315 16.806 2.66 5.428 4.441 11.569 5.73 18.258 6.25 2.276.165 3.756-.466 5.237-1.946 1.672-1.672 3.372-3.344 5.18-4.88 2.112-1.782 4.443-1.864 6.361-.466 2.33 1.7 2.77 4.606 1.042 6.909-3.81 5.127-7.566 10.28-11.405 15.38-1.37 1.837-3.207 2.906-5.62 2.85-2.96-.027-5.867.028-8.8.028"/><path fill="#E19B96" d="M39.689 38.075c4.606-4.14 9.239-8.06 13.543-12.31 2.165-2.138 3.92-4.798 5.483-7.457 2.303-3.865 1.179-8.882-2.303-11.679-3.646-2.933-7.704-2.823-11.432.439-1.316 1.151-2.44 2.55-3.647 3.81-1.453 1.509-2.521 1.509-4.002 0-1.453-1.48-2.824-3.043-4.359-4.386-1.7-1.48-3.729-2.248-6.086-1.864-6.826 1.124-10.171 8.197-6.69 14.173 4.661 8.006 11.816 13.461 19.493 19.274m-.302-30.76c1.015-.987 1.92-1.974 2.906-2.852 5.1-4.578 11.35-4.88 16.422-.767 5.044 4.057 6.36 10.939 3.235 16.613-2.413 4.36-5.565 8.143-9.294 11.405-3.756 3.29-7.73 6.306-11.596 9.431-1.015.822-2.03 1.015-3.153.192-6.635-4.688-12.94-9.76-17.957-16.202-2.714-3.482-5.209-7.129-4.88-11.871.357-5.182 2.878-8.992 7.566-11.213C27.187-.115 31.52.46 35.44 3.64c1.344 1.124 2.578 2.412 3.948 3.674"/></g></svg>